<?xml version="1.0" encoding="iso-8859-1"?>
<!-- Uploaded to: SVG Repo, www.svgrepo.com, Generator: SVG Repo Mixer Tools -->
<!DOCTYPE svg PUBLIC "-//W3C//DTD SVG 1.1//EN" "http://www.w3.org/Graphics/SVG/1.1/DTD/svg11.dtd">
<svg fill="#000000" height="800px" width="800px" version="1.1" id="Capa_1" xmlns="http://www.w3.org/2000/svg" xmlns:xlink="http://www.w3.org/1999/xlink" 
	 viewBox="0 0 470 470" xml:space="preserve">
<g>
	<path d="M401.17,68.83C356.784,24.444,297.771,0,235,0S113.216,24.444,68.83,68.83C24.444,113.215,0,172.229,0,235
		s24.444,121.785,68.83,166.17C113.216,445.556,172.229,470,235,470s121.784-24.444,166.17-68.83
		C445.556,356.785,470,297.771,470,235S445.556,113.215,401.17,68.83z M235,455c-121.309,0-220-98.691-220-220S113.691,15,235,15
		s220,98.691,220,220S356.309,455,235,455z"/>
	<path d="M235,25C119.206,25,25,119.206,25,235c0,53.381,20.05,104.258,56.455,143.259c36.223,38.804,85.231,62.303,137.997,66.167
		c4.127,0.308,7.726-2.801,8.028-6.932c0.302-4.131-2.802-7.725-6.933-8.028C119.306,422.053,40,336.633,40,235
		c0-107.523,87.477-195,195-195s195,87.477,195,195c0,101.633-79.306,187.053-180.548,194.466c-4.131,0.303-7.234,3.896-6.933,8.028
		c0.289,3.945,3.579,6.953,7.473,6.953c0.184,0,0.369-0.007,0.556-0.021c52.766-3.864,101.774-27.363,137.997-66.167
		C424.95,339.258,445,288.381,445,235C445,119.206,350.794,25,235,25z"/>
	<path d="M202.166,197.63c-4.143,0-7.5,3.358-7.5,7.5s3.357,7.5,7.5,7.5h65.668c4.143,0,7.5-3.358,7.5-7.5s-3.357-7.5-7.5-7.5h-2.5
		V69.513c0-2.188-0.955-4.267-2.616-5.692s-3.86-2.053-6.023-1.721l-54.771,8.417c-4.094,0.629-6.902,4.458-6.273,8.552
		c0.63,4.095,4.466,6.9,8.553,6.274l0.463-0.071V197.63H202.166z M219.666,82.967l30.668-4.713V197.63h-30.668V82.967z"/>
	<path d="M135.637,376c0.632,3.584,3.746,6.198,7.386,6.198h183.955c3.64,0,6.754-2.613,7.386-6.198l18.871-107.02
		c0.72-4.079-2.004-7.969-6.083-8.688c-2.404-0.424-4.853-0.639-7.275-0.639c-20.162,0-37.422,14.483-41.04,34.438
		c-2.445,13.489-7.188,39.437-7.188,39.44c-0.345,1.89-2.568,3.745-4.489,3.745h-22.197c-1.921,0-4.144-1.854-4.488-3.744
		l-4.122-22.615l28.012-12.48c2.705-1.205,4.447-3.889,4.447-6.851c0-11.375-7.612-21.006-18.01-24.068
		c-2.451-18.548-15.307-34.168-33.525-39.967c-1.48-0.471-3.07-0.471-4.549,0c-18.219,5.798-31.074,21.418-33.525,39.966
		c-10.397,3.062-18.01,12.692-18.01,24.068c0,2.961,1.742,5.646,4.447,6.851l28.012,12.48l-4.123,22.616
		c-0.344,1.889-2.566,3.744-4.487,3.744h-22.197c-1.921,0-4.145-1.855-4.489-3.748c0,0-4.743-25.949-7.188-39.438
		c-3.618-19.954-20.878-34.437-41.04-34.437c-2.423,0-4.871,0.215-7.275,0.639c-4.079,0.72-6.803,4.609-6.083,8.688L135.637,376z
		 M156.404,296.766c2.447,13.496,7.192,39.459,7.192,39.457c1.642,9.002,10.096,16.053,19.245,16.053h22.197
		c9.15,0,17.604-7.052,19.244-16.054l5.18-28.413c0.621-3.403-1.166-6.789-4.325-8.196l-27.929-12.442
		c1.641-3.354,5.088-5.668,9.065-5.668c4.143,0,7.5-3.358,7.5-7.5c0-13.95,8.435-26.258,21.226-31.345
		c12.791,5.086,21.226,17.395,21.226,31.345c0,4.142,3.357,7.5,7.5,7.5c3.978,0,7.425,2.315,9.065,5.668l-27.929,12.442
		c-3.159,1.408-4.946,4.793-4.325,8.196l5.179,28.413c1.641,9.002,10.095,16.054,19.245,16.054h22.197
		c9.149,0,17.604-7.051,19.245-16.05c0,0,4.745-25.963,7.192-39.459c2.147-11.842,11.749-20.683,23.38-21.956l-16.291,92.387
		H149.315l-16.291-92.387C144.655,276.083,154.257,284.924,156.404,296.766z"/>
	<path d="M243,274.5c0-4.411-3.589-8-8-8s-8,3.589-8,8s3.589,8,8,8S243,278.911,243,274.5z"/>
	<path d="M167.075,95.644c3.723-1.818,5.266-6.309,3.448-10.031c-1.818-3.722-6.311-5.265-10.03-3.448
		c-28.201,13.773-52.042,35.066-68.943,61.579C74.181,170.989,65,202.544,65,235c0,37.223,11.815,72.573,34.168,102.229
		c1.475,1.956,3.721,2.986,5.995,2.986c1.571,0,3.156-0.492,4.509-1.511c3.308-2.493,3.968-7.196,1.475-10.503
		C90.771,301.167,80,268.938,80,235C80,175.273,113.365,121.875,167.075,95.644z"/>
	<path d="M360.329,338.703c1.353,1.019,2.937,1.511,4.509,1.511c2.274,0,4.521-1.03,5.995-2.986
		C393.186,307.572,405,272.222,405,235c0-32.456-9.181-64.011-26.55-91.256c-16.901-26.512-40.742-47.806-68.943-61.579
		c-3.724-1.819-8.212-0.273-10.03,3.448c-1.817,3.722-0.274,8.213,3.448,10.031C356.635,121.875,390,175.273,390,235
		c0,33.938-10.77,66.166-31.146,93.199C356.361,331.507,357.021,336.209,360.329,338.703z"/>
</g>
</svg>